<?xml version="1.0" encoding="UTF-8"?>
<svg xmlns="http://www.w3.org/2000/svg" xmlns:xlink="http://www.w3.org/1999/xlink" width="144px" height="144px" viewBox="0 0 144 144" version="1.1">
<g id="surface1">
<path style=" stroke:none;fill-rule:nonzero;fill:rgb(0.784314%,47.058824%,70.588237%);fill-opacity:1;" d="M 34.453125 37.074219 L 97.945312 37.074219 L 97.945312 57.097656 L 97.804688 57.574219 L 97.453125 58.046875 L 96.890625 58.597656 L 96.046875 59.542969 L 95.484375 60.09375 L 94.359375 61.355469 L 93.796875 61.910156 L 93.234375 62.539062 L 92.671875 63.089844 L 91.546875 64.351562 L 90.984375 64.90625 L 90.210938 65.773438 L 89.648438 66.324219 L 88.3125 67.820312 L 88.101562 67.742188 L 87.75 64.984375 L 87.398438 63.484375 L 86.976562 62.304688 L 86.414062 61.042969 L 85.921875 60.09375 L 85.289062 59.148438 L 84.515625 58.125 L 83.953125 57.492188 L 83.179688 56.785156 L 82.195312 55.996094 L 81 55.207031 L 79.59375 54.496094 L 79.453125 54.339844 L 79.171875 52.449219 L 78.820312 51.109375 L 78.117188 49.214844 L 77.484375 47.953125 L 76.640625 46.613281 L 75.65625 45.429688 L 75.09375 44.800781 L 74.179688 44.011719 L 72.84375 43.066406 L 71.71875 42.433594 L 70.171875 41.804688 L 68.976562 41.488281 L 68.0625 41.332031 L 67.007812 41.253906 L 66.09375 41.253906 L 64.476562 41.410156 L 62.929688 41.804688 L 61.382812 42.433594 L 60.257812 43.066406 L 59.132812 43.855469 L 58.21875 44.644531 L 57.375 45.511719 L 56.8125 46.140625 L 56.109375 47.164062 L 55.476562 48.269531 L 54.773438 49.765625 L 54.210938 51.5 L 53.859375 53.15625 L 53.648438 54.496094 L 53.367188 54.734375 L 52.242188 55.207031 L 50.90625 55.917969 L 49.570312 56.863281 L 48.796875 57.574219 L 48.09375 58.28125 L 47.601562 58.832031 L 46.828125 59.9375 L 46.125 61.121094 L 45.351562 62.933594 L 44.859375 64.589844 L 44.578125 66.164062 L 44.4375 67.585938 L 44.4375 69.082031 L 44.648438 71.054688 L 45 72.867188 L 45.492188 74.363281 L 46.054688 75.625 L 46.617188 76.730469 L 47.25 77.675781 L 47.882812 78.542969 L 48.726562 79.488281 L 49.710938 80.355469 L 50.976562 81.222656 L 52.453125 82.011719 L 53.507812 82.40625 L 54.84375 82.722656 L 55.828125 82.878906 L 56.882812 82.957031 L 57.9375 82.957031 L 59.765625 82.722656 L 61.242188 82.328125 L 62.648438 81.695312 L 63.984375 80.910156 L 64.828125 80.277344 L 65.742188 79.488281 L 66.234375 78.9375 L 66.445312 78.859375 L 67.148438 79.488281 L 68.132812 80.277344 L 69.257812 80.988281 L 70.664062 81.695312 L 71.929688 82.171875 L 73.546875 82.484375 L 74.320312 82.5625 L 75.867188 82.5625 L 77.203125 82.40625 L 78.539062 82.089844 L 79.945312 81.539062 L 81.351562 80.828125 L 82.265625 80.199219 L 82.40625 80.199219 L 82.195312 81.066406 L 81.632812 83.195312 L 81.632812 83.984375 L 81.914062 84.613281 L 82.265625 84.929688 L 82.476562 85.007812 L 83.320312 85.007812 L 86.695312 84.21875 L 89.71875 83.589844 L 93.65625 82.644531 L 94.21875 82.25 L 95.0625 81.382812 L 96.398438 79.882812 L 96.960938 79.332031 L 97.59375 78.621094 L 97.945312 78.464844 L 98.015625 78.621094 L 98.015625 84.773438 L 97.875 86.820312 L 97.523438 88.320312 L 97.101562 89.503906 L 96.539062 90.605469 L 95.625 91.867188 L 95.0625 92.5 L 94.007812 93.367188 L 92.53125 94.234375 L 91.40625 94.625 L 89.929688 94.863281 L 42.328125 94.863281 L 40.921875 94.625 L 39.585938 94.074219 L 38.53125 93.445312 L 37.757812 92.8125 L 37.054688 92.105469 L 36.492188 91.472656 L 35.648438 90.132812 L 35.15625 89.027344 L 34.664062 87.375 L 34.523438 86.507812 L 34.453125 85.640625 L 34.382812 78.621094 L 34.382812 37.863281 Z M 34.453125 37.074219 "/>
<path style=" stroke:none;fill-rule:nonzero;fill:rgb(0.784314%,47.058824%,70.588237%);fill-opacity:1;" d="M 42.820312 23.671875 L 89.367188 23.671875 L 90.984375 23.828125 L 92.109375 24.144531 L 93.867188 25.089844 L 94.992188 26.035156 L 96.046875 27.21875 L 96.679688 28.246094 L 97.242188 29.425781 L 97.734375 31.082031 L 97.945312 32.5 L 97.945312 34.078125 L 97.875 34.15625 L 34.523438 34.15625 L 34.382812 33.84375 L 34.453125 32.5 L 34.664062 31.160156 L 35.15625 29.507812 L 35.71875 28.324219 L 36.421875 27.21875 L 37.265625 26.195312 L 37.96875 25.5625 L 38.882812 24.933594 L 40.007812 24.300781 L 41.132812 23.910156 L 41.976562 23.75 Z M 43.171875 28.402344 L 42.609375 28.71875 L 42.117188 29.191406 L 41.765625 29.898438 L 41.695312 30.292969 L 41.695312 30.925781 L 41.976562 31.792969 L 42.328125 32.265625 L 43.03125 32.738281 L 43.242188 32.816406 L 44.015625 32.816406 L 44.71875 32.5 L 45.210938 31.949219 L 45.5625 31.160156 L 45.632812 30.847656 L 45.632812 30.292969 L 45.351562 29.507812 L 44.71875 28.71875 L 44.085938 28.402344 Z M 49.640625 28.402344 L 49.078125 28.640625 L 48.445312 29.269531 L 48.164062 29.980469 L 48.164062 31.160156 L 48.445312 31.871094 L 48.867188 32.421875 L 49.429688 32.738281 L 49.640625 32.816406 L 50.414062 32.816406 L 50.976562 32.582031 L 51.539062 32.027344 L 51.890625 31.320312 L 51.960938 31.082031 L 51.960938 29.980469 L 51.679688 29.347656 L 51.328125 28.875 L 50.695312 28.480469 L 50.484375 28.402344 Z M 55.96875 28.402344 L 55.265625 28.796875 L 54.703125 29.507812 L 54.492188 30.136719 L 54.492188 31.003906 L 54.703125 31.714844 L 55.265625 32.421875 L 55.757812 32.738281 L 56.039062 32.816406 L 56.8125 32.816406 L 57.445312 32.5 L 58.007812 31.949219 L 58.289062 31.320312 L 58.359375 31.003906 L 58.359375 30.058594 L 58.078125 29.347656 L 57.585938 28.796875 L 56.882812 28.402344 Z M 55.96875 28.402344 "/>
<path style=" stroke:none;fill-rule:nonzero;fill:rgb(0.784314%,47.058824%,70.588237%);fill-opacity:1;" d="M 108.492188 51.027344 L 109.265625 51.109375 L 110.109375 51.582031 L 111.796875 53.472656 L 112.289062 54.105469 L 113.0625 55.050781 L 113.484375 55.839844 L 113.625 56.785156 L 113.414062 57.492188 L 112.992188 58.203125 L 112.007812 59.308594 L 111.445312 59.859375 L 110.601562 60.804688 L 110.039062 61.355469 L 108.984375 62.539062 L 108.421875 63.089844 L 107.367188 64.273438 L 106.804688 64.824219 L 105.960938 65.773438 L 105.398438 66.324219 L 104.625 67.191406 L 104.0625 67.742188 L 103.078125 68.847656 L 102.515625 69.398438 L 101.671875 70.34375 L 101.109375 70.894531 L 100.195312 71.921875 L 99.632812 72.472656 L 99 73.183594 L 98.4375 73.734375 L 97.453125 74.839844 L 96.890625 75.390625 L 95.976562 76.414062 L 95.414062 76.96875 L 94.710938 77.753906 L 94.148438 78.308594 L 93.65625 78.78125 L 93.375 79.09375 L 93.09375 79.015625 L 92.039062 77.835938 L 91.546875 77.203125 L 90.492188 76.019531 L 90 75.390625 L 89.296875 74.601562 L 88.804688 73.972656 L 88.03125 73.105469 L 87.679688 72.628906 L 87.75 72.394531 L 87.890625 72.394531 L 87.960938 72.15625 L 88.523438 71.605469 L 89.226562 70.816406 L 89.789062 70.265625 L 90.632812 69.320312 L 91.195312 68.769531 L 92.53125 67.269531 L 93.09375 66.71875 L 93.9375 65.773438 L 94.5 65.21875 L 95.414062 64.195312 L 95.976562 63.644531 L 96.46875 63.089844 L 97.03125 62.539062 L 97.804688 61.671875 L 98.367188 61.121094 L 99.632812 59.699219 L 100.195312 59.148438 L 101.039062 58.203125 L 101.601562 57.652344 L 102.726562 56.390625 L 103.289062 55.839844 L 103.78125 55.285156 L 104.34375 54.734375 L 104.976562 54.023438 L 105.539062 53.472656 L 106.804688 52.054688 L 107.507812 51.421875 L 108.140625 51.109375 Z M 108.492188 51.027344 "/>
<path style=" stroke:none;fill-rule:nonzero;fill:rgb(0.784314%,47.058824%,70.588237%);fill-opacity:1;" d="M 53.507812 57.730469 L 53.71875 57.730469 L 54.070312 59.226562 L 54.492188 60.882812 L 55.054688 62.304688 L 55.6875 63.5625 L 56.460938 64.746094 L 57.304688 65.851562 L 57.867188 66.480469 L 58.851562 67.347656 L 59.90625 68.136719 L 61.242188 68.925781 L 62.085938 69.320312 L 62.296875 69.714844 L 62.648438 71.761719 L 63 73.183594 L 63.703125 74.917969 L 64.546875 76.492188 L 64.40625 76.808594 L 63.84375 77.441406 L 62.648438 78.386719 L 61.523438 79.015625 L 60.539062 79.488281 L 59.484375 79.804688 L 58.078125 80.042969 L 56.460938 80.042969 L 54.984375 79.804688 L 53.859375 79.410156 L 52.382812 78.703125 L 51.1875 77.835938 L 50.414062 77.125 L 49.429688 76.019531 L 48.65625 74.839844 L 48.023438 73.578125 L 47.671875 72.710938 L 47.320312 71.449219 L 47.109375 70.265625 L 47.039062 69.636719 L 47.039062 67.347656 L 47.25 65.851562 L 47.601562 64.511719 L 48.375 62.695312 L 48.9375 61.75 L 49.78125 60.648438 L 50.0625 60.253906 L 50.625 59.699219 L 51.539062 58.914062 L 52.804688 58.125 Z M 53.507812 57.730469 "/>
<path style=" stroke:none;fill-rule:nonzero;fill:rgb(0.784314%,47.058824%,70.588237%);fill-opacity:1;" d="M 79.382812 57.730469 L 79.734375 57.808594 L 80.71875 58.441406 L 81.703125 59.226562 L 82.195312 59.78125 L 82.6875 60.253906 L 83.320312 61.121094 L 83.882812 61.988281 L 84.585938 63.484375 L 85.078125 64.984375 L 85.289062 66.007812 L 85.429688 67.742188 L 85.429688 68.609375 L 85.21875 70.738281 L 85.007812 71.289062 L 84.585938 71.84375 L 84.234375 73.496094 L 83.742188 74.523438 L 83.039062 75.546875 L 82.265625 76.492188 L 81.421875 77.28125 L 80.367188 78.070312 L 79.03125 78.78125 L 77.554688 79.332031 L 76.359375 79.570312 L 74.8125 79.648438 L 73.40625 79.488281 L 72.210938 79.175781 L 71.015625 78.703125 L 69.890625 78.070312 L 69.046875 77.441406 L 68.34375 76.808594 L 68.203125 76.652344 L 68.273438 76.179688 L 68.835938 75.074219 L 69.539062 73.183594 L 69.890625 71.683594 L 70.171875 69.792969 L 70.453125 69.476562 L 71.507812 69.082031 L 72.632812 68.453125 L 73.617188 67.820312 L 74.601562 67.03125 L 75.585938 66.085938 L 76.5 64.984375 L 77.414062 63.5625 L 78.046875 62.304688 L 78.539062 61.121094 L 78.960938 59.699219 Z M 79.382812 57.730469 "/>
<path style=" stroke:none;fill-rule:nonzero;fill:rgb(0.784314%,47.058824%,70.588237%);fill-opacity:1;" d="M 65.742188 44.25 L 67.429688 44.25 L 68.554688 44.40625 L 69.609375 44.722656 L 70.804688 45.195312 L 71.929688 45.824219 L 73.054688 46.691406 L 73.96875 47.640625 L 74.671875 48.507812 L 75.304688 49.53125 L 75.9375 50.871094 L 76.429688 52.449219 L 76.710938 53.472656 L 76.710938 53.710938 L 73.898438 53.710938 L 72.492188 53.945312 L 71.015625 54.417969 L 69.679688 54.972656 L 68.132812 55.917969 L 67.21875 56.707031 L 66.09375 57.730469 L 65.601562 57.414062 L 64.757812 56.707031 L 63.632812 55.917969 L 62.507812 55.285156 L 61.453125 54.8125 L 59.765625 54.339844 L 58.359375 54.105469 L 56.460938 54.023438 L 56.460938 53.394531 L 56.882812 51.660156 L 57.234375 50.714844 L 57.9375 49.292969 L 58.570312 48.347656 L 59.34375 47.402344 L 60.046875 46.691406 L 61.3125 45.746094 L 62.296875 45.195312 L 63.914062 44.5625 L 64.96875 44.328125 Z M 65.742188 44.25 "/>
<path style=" stroke:none;fill-rule:nonzero;fill:rgb(0.784314%,47.058824%,70.588237%);fill-opacity:1;" d="M 74.320312 56.625 L 75.9375 56.625 L 76.78125 56.785156 L 76.78125 57.414062 L 76.429688 59.070312 L 75.867188 60.648438 L 75.304688 61.828125 L 74.460938 63.089844 L 73.6875 64.039062 L 72.984375 64.746094 L 71.71875 65.691406 L 70.523438 66.402344 L 70.101562 66.480469 L 69.679688 64.429688 L 69.1875 62.933594 L 68.554688 61.4375 L 67.992188 60.410156 L 67.851562 60.015625 L 68.414062 59.386719 L 69.398438 58.519531 L 70.59375 57.730469 L 71.578125 57.257812 L 73.125 56.785156 Z M 74.320312 56.625 "/>
<path style=" stroke:none;fill-rule:nonzero;fill:rgb(0.784314%,47.058824%,70.588237%);fill-opacity:1;" d="M 56.390625 57.019531 L 58.289062 57.019531 L 59.554688 57.257812 L 60.609375 57.574219 L 62.015625 58.28125 L 63.140625 59.070312 L 63.773438 59.621094 L 64.195312 60.015625 L 64.125 60.570312 L 63.351562 62.222656 L 62.859375 63.644531 L 62.4375 65.691406 L 62.296875 66.164062 L 61.945312 66.007812 L 61.171875 65.535156 L 60.1875 64.746094 L 59.484375 64.039062 L 58.710938 63.171875 L 57.867188 61.910156 L 57.164062 60.488281 L 56.742188 59.226562 L 56.390625 57.574219 Z M 56.390625 57.019531 "/>
<path style=" stroke:none;fill-rule:nonzero;fill:rgb(0.784314%,47.058824%,70.588237%);fill-opacity:1;" d="M 86.484375 75.707031 L 86.765625 75.863281 L 87.328125 76.492188 L 87.820312 77.125 L 89.15625 78.621094 L 89.648438 79.253906 L 90.351562 80.121094 L 90.421875 80.355469 L 90.070312 80.515625 L 85.148438 81.617188 L 84.867188 81.539062 L 85.148438 80.199219 L 85.992188 77.203125 L 86.414062 75.785156 Z M 86.484375 75.707031 "/>
<path style=" stroke:none;fill-rule:nonzero;fill:rgb(0.784314%,47.058824%,70.588237%);fill-opacity:1;" d="M 66.023438 62.777344 L 66.234375 62.777344 L 67.148438 64.984375 L 67.429688 66.007812 L 67.5 66.480469 L 67.359375 67.03125 L 67.148438 67.269531 L 65.390625 67.191406 L 64.96875 67.113281 L 64.96875 66.246094 L 65.320312 64.589844 L 65.742188 63.328125 Z M 66.023438 62.777344 "/>
<path style=" stroke:none;fill-rule:nonzero;fill:rgb(1.176471%,47.058824%,70.588237%);fill-opacity:1;" d="M 65.039062 70.109375 L 67.429688 70.1875 L 67.5 70.421875 L 67.148438 72.078125 L 66.585938 73.496094 L 66.375 73.890625 L 66.164062 73.8125 L 65.601562 72.550781 L 65.109375 70.894531 Z M 65.039062 70.109375 "/>
</g>
</svg>
