<?xml version="1.0" encoding="UTF-8"?>
<svg xmlns="http://www.w3.org/2000/svg" xmlns:xlink="http://www.w3.org/1999/xlink" width="192px" height="192px" viewBox="0 0 192 192" version="1.1">
<g id="surface1">
<path style=" stroke:none;fill-rule:nonzero;fill:rgb(0.784314%,47.058824%,70.588237%);fill-opacity:1;" d="M 45.9375 49.433594 L 130.59375 49.433594 L 130.59375 76.132812 L 130.40625 76.761719 L 129.9375 77.394531 L 129.1875 78.128906 L 128.0625 79.390625 L 127.3125 80.128906 L 125.8125 81.808594 L 125.0625 82.542969 L 124.3125 83.386719 L 123.5625 84.121094 L 122.0625 85.804688 L 121.3125 86.539062 L 120.28125 87.695312 L 119.53125 88.429688 L 117.75 90.429688 L 117.46875 90.324219 L 117 86.644531 L 116.53125 84.648438 L 115.96875 83.070312 L 115.21875 81.386719 L 114.5625 80.128906 L 113.71875 78.867188 L 112.6875 77.5 L 111.9375 76.660156 L 110.90625 75.710938 L 109.59375 74.660156 L 108 73.609375 L 106.125 72.664062 L 105.9375 72.453125 L 105.5625 69.929688 L 105.09375 68.144531 L 104.15625 65.621094 L 103.3125 63.9375 L 102.1875 62.152344 L 100.875 60.574219 L 100.125 59.734375 L 98.90625 58.683594 L 97.125 57.421875 L 95.625 56.582031 L 93.5625 55.738281 L 91.96875 55.320312 L 90.75 55.109375 L 89.34375 55.003906 L 88.125 55.003906 L 85.96875 55.214844 L 83.90625 55.738281 L 81.84375 56.582031 L 80.34375 57.421875 L 78.84375 58.472656 L 77.625 59.523438 L 76.5 60.679688 L 75.75 61.519531 L 74.8125 62.886719 L 73.96875 64.359375 L 73.03125 66.355469 L 72.28125 68.667969 L 71.8125 70.875 L 71.53125 72.664062 L 71.15625 72.980469 L 69.65625 73.609375 L 67.875 74.554688 L 66.09375 75.816406 L 65.0625 76.761719 L 64.125 77.710938 L 63.46875 78.445312 L 62.4375 79.917969 L 61.5 81.492188 L 60.46875 83.910156 L 59.8125 86.117188 L 59.4375 88.222656 L 59.25 90.113281 L 59.25 92.109375 L 59.53125 94.738281 L 60 97.15625 L 60.65625 99.152344 L 61.40625 100.835938 L 62.15625 102.308594 L 63 103.570312 L 63.84375 104.726562 L 64.96875 105.984375 L 66.28125 107.140625 L 67.96875 108.300781 L 69.9375 109.351562 L 71.34375 109.875 L 73.125 110.296875 L 74.4375 110.507812 L 75.84375 110.613281 L 77.25 110.613281 L 79.6875 110.296875 L 81.65625 109.769531 L 83.53125 108.929688 L 85.3125 107.878906 L 86.4375 107.039062 L 87.65625 105.984375 L 88.3125 105.25 L 88.59375 105.144531 L 89.53125 105.984375 L 90.84375 107.039062 L 92.34375 107.984375 L 94.21875 108.929688 L 95.90625 109.558594 L 98.0625 109.980469 L 99.09375 110.085938 L 101.15625 110.085938 L 102.9375 109.875 L 104.71875 109.457031 L 106.59375 108.71875 L 108.46875 107.773438 L 109.6875 106.933594 L 109.875 106.933594 L 109.59375 108.089844 L 108.84375 110.925781 L 108.84375 111.976562 L 109.21875 112.820312 L 109.6875 113.238281 L 109.96875 113.34375 L 111.09375 113.34375 L 115.59375 112.292969 L 119.625 111.453125 L 124.875 110.191406 L 125.625 109.664062 L 126.75 108.507812 L 128.53125 106.511719 L 129.28125 105.777344 L 130.125 104.828125 L 130.59375 104.621094 L 130.6875 104.828125 L 130.6875 113.027344 L 130.5 115.761719 L 130.03125 117.757812 L 129.46875 119.335938 L 128.71875 120.808594 L 127.5 122.488281 L 126.75 123.332031 L 125.34375 124.488281 L 123.375 125.644531 L 121.875 126.167969 L 119.90625 126.484375 L 56.4375 126.484375 L 54.5625 126.167969 L 52.78125 125.433594 L 51.375 124.59375 L 50.34375 123.75 L 49.40625 122.804688 L 48.65625 121.964844 L 47.53125 120.175781 L 46.875 118.707031 L 46.21875 116.5 L 46.03125 115.339844 L 45.9375 114.183594 L 45.84375 104.828125 L 45.84375 50.484375 Z M 45.9375 49.433594 "/>
<path style=" stroke:none;fill-rule:nonzero;fill:rgb(0.784314%,47.058824%,70.588237%);fill-opacity:1;" d="M 57.09375 31.5625 L 119.15625 31.5625 L 121.3125 31.773438 L 122.8125 32.191406 L 125.15625 33.453125 L 126.65625 34.714844 L 128.0625 36.292969 L 128.90625 37.660156 L 129.65625 39.234375 L 130.3125 41.445312 L 130.59375 43.335938 L 130.59375 45.4375 L 130.5 45.542969 L 46.03125 45.542969 L 45.84375 45.121094 L 45.9375 43.335938 L 46.21875 41.546875 L 46.875 39.339844 L 47.625 37.765625 L 48.5625 36.292969 L 49.6875 34.925781 L 50.625 34.085938 L 51.84375 33.246094 L 53.34375 32.402344 L 54.84375 31.878906 L 55.96875 31.667969 Z M 57.5625 37.871094 L 56.8125 38.289062 L 56.15625 38.921875 L 55.6875 39.867188 L 55.59375 40.390625 L 55.59375 41.234375 L 55.96875 42.390625 L 56.4375 43.019531 L 57.375 43.652344 L 57.65625 43.757812 L 58.6875 43.757812 L 59.625 43.335938 L 60.28125 42.601562 L 60.75 41.546875 L 60.84375 41.128906 L 60.84375 40.390625 L 60.46875 39.339844 L 59.625 38.289062 L 58.78125 37.871094 Z M 66.1875 37.871094 L 65.4375 38.183594 L 64.59375 39.027344 L 64.21875 39.972656 L 64.21875 41.546875 L 64.59375 42.496094 L 65.15625 43.230469 L 65.90625 43.652344 L 66.1875 43.757812 L 67.21875 43.757812 L 67.96875 43.441406 L 68.71875 42.703125 L 69.1875 41.757812 L 69.28125 41.445312 L 69.28125 39.972656 L 68.90625 39.132812 L 68.4375 38.5 L 67.59375 37.976562 L 67.3125 37.871094 Z M 74.625 37.871094 L 73.6875 38.394531 L 72.9375 39.339844 L 72.65625 40.183594 L 72.65625 41.339844 L 72.9375 42.285156 L 73.6875 43.230469 L 74.34375 43.652344 L 74.71875 43.757812 L 75.75 43.757812 L 76.59375 43.335938 L 77.34375 42.601562 L 77.71875 41.757812 L 77.8125 41.339844 L 77.8125 40.078125 L 77.4375 39.132812 L 76.78125 38.394531 L 75.84375 37.871094 Z M 74.625 37.871094 "/>
<path style=" stroke:none;fill-rule:nonzero;fill:rgb(0.784314%,47.058824%,70.588237%);fill-opacity:1;" d="M 144.65625 68.039062 L 145.6875 68.144531 L 146.8125 68.773438 L 149.0625 71.296875 L 149.71875 72.136719 L 150.75 73.398438 L 151.3125 74.449219 L 151.5 75.710938 L 151.21875 76.660156 L 150.65625 77.605469 L 149.34375 79.074219 L 148.59375 79.8125 L 147.46875 81.074219 L 146.71875 81.808594 L 145.3125 83.386719 L 144.5625 84.121094 L 143.15625 85.699219 L 142.40625 86.433594 L 141.28125 87.695312 L 140.53125 88.429688 L 139.5 89.585938 L 138.75 90.324219 L 137.4375 91.796875 L 136.6875 92.53125 L 135.5625 93.792969 L 134.8125 94.527344 L 133.59375 95.894531 L 132.84375 96.628906 L 132 97.578125 L 131.25 98.3125 L 129.9375 99.785156 L 129.1875 100.519531 L 127.96875 101.886719 L 127.21875 102.621094 L 126.28125 103.671875 L 125.53125 104.410156 L 124.875 105.039062 L 124.5 105.460938 L 124.125 105.355469 L 122.71875 103.777344 L 122.0625 102.9375 L 120.65625 101.359375 L 120 100.519531 L 119.0625 99.46875 L 118.40625 98.628906 L 117.375 97.472656 L 116.90625 96.839844 L 117 96.527344 L 117.1875 96.527344 L 117.28125 96.210938 L 118.03125 95.472656 L 118.96875 94.421875 L 119.71875 93.6875 L 120.84375 92.425781 L 121.59375 91.691406 L 123.375 89.691406 L 124.125 88.957031 L 125.25 87.695312 L 126 86.960938 L 127.21875 85.59375 L 127.96875 84.859375 L 128.625 84.121094 L 129.375 83.386719 L 130.40625 82.230469 L 131.15625 81.492188 L 132.84375 79.601562 L 133.59375 78.867188 L 134.71875 77.605469 L 135.46875 76.867188 L 136.96875 75.1875 L 137.71875 74.449219 L 138.375 73.714844 L 139.125 72.980469 L 139.96875 72.03125 L 140.71875 71.296875 L 142.40625 69.40625 L 143.34375 68.5625 L 144.1875 68.144531 Z M 144.65625 68.039062 "/>
<path style=" stroke:none;fill-rule:nonzero;fill:rgb(0.784314%,47.058824%,70.588237%);fill-opacity:1;" d="M 71.34375 76.972656 L 71.625 76.972656 L 72.09375 78.972656 L 72.65625 81.179688 L 73.40625 83.070312 L 74.25 84.753906 L 75.28125 86.328125 L 76.40625 87.800781 L 77.15625 88.640625 L 78.46875 89.796875 L 79.875 90.847656 L 81.65625 91.898438 L 82.78125 92.425781 L 83.0625 92.953125 L 83.53125 95.683594 L 84 97.578125 L 84.9375 99.890625 L 86.0625 101.992188 L 85.875 102.414062 L 85.125 103.253906 L 83.53125 104.515625 L 82.03125 105.355469 L 80.71875 105.984375 L 79.3125 106.40625 L 77.4375 106.722656 L 75.28125 106.722656 L 73.3125 106.40625 L 71.8125 105.882812 L 69.84375 104.933594 L 68.25 103.777344 L 67.21875 102.832031 L 65.90625 101.359375 L 64.875 99.785156 L 64.03125 98.101562 L 63.5625 96.945312 L 63.09375 95.265625 L 62.8125 93.6875 L 62.71875 92.847656 L 62.71875 89.796875 L 63 87.800781 L 63.46875 86.015625 L 64.5 83.597656 L 65.25 82.335938 L 66.375 80.863281 L 66.75 80.335938 L 67.5 79.601562 L 68.71875 78.550781 L 70.40625 77.5 Z M 71.34375 76.972656 "/>
<path style=" stroke:none;fill-rule:nonzero;fill:rgb(0.784314%,47.058824%,70.588237%);fill-opacity:1;" d="M 105.84375 76.972656 L 106.3125 77.078125 L 107.625 77.917969 L 108.9375 78.972656 L 109.59375 79.707031 L 110.25 80.335938 L 111.09375 81.492188 L 111.84375 82.648438 L 112.78125 84.648438 L 113.4375 86.644531 L 113.71875 88.011719 L 113.90625 90.324219 L 113.90625 91.480469 L 113.625 94.316406 L 113.34375 95.054688 L 112.78125 95.789062 L 112.3125 97.996094 L 111.65625 99.363281 L 110.71875 100.730469 L 109.6875 101.992188 L 108.5625 103.042969 L 107.15625 104.09375 L 105.375 105.039062 L 103.40625 105.777344 L 101.8125 106.089844 L 99.75 106.195312 L 97.875 105.984375 L 96.28125 105.566406 L 94.6875 104.933594 L 93.1875 104.09375 L 92.0625 103.253906 L 91.125 102.414062 L 90.9375 102.203125 L 91.03125 101.570312 L 91.78125 100.101562 L 92.71875 97.578125 L 93.1875 95.578125 L 93.5625 93.058594 L 93.9375 92.636719 L 95.34375 92.109375 L 96.84375 91.269531 L 98.15625 90.429688 L 99.46875 89.378906 L 100.78125 88.117188 L 102 86.644531 L 103.21875 84.753906 L 104.0625 83.070312 L 104.71875 81.492188 L 105.28125 79.601562 Z M 105.84375 76.972656 "/>
<path style=" stroke:none;fill-rule:nonzero;fill:rgb(0.784314%,47.058824%,70.588237%);fill-opacity:1;" d="M 87.65625 59 L 89.90625 59 L 91.40625 59.207031 L 92.8125 59.628906 L 94.40625 60.257812 L 95.90625 61.101562 L 97.40625 62.257812 L 98.625 63.519531 L 99.5625 64.675781 L 100.40625 66.042969 L 101.25 67.828125 L 101.90625 69.929688 L 102.28125 71.296875 L 102.28125 71.613281 L 98.53125 71.613281 L 96.65625 71.929688 L 94.6875 72.558594 L 92.90625 73.292969 L 90.84375 74.554688 L 89.625 75.605469 L 88.125 76.972656 L 87.46875 76.554688 L 86.34375 75.605469 L 84.84375 74.554688 L 83.34375 73.714844 L 81.9375 73.085938 L 79.6875 72.453125 L 77.8125 72.136719 L 75.28125 72.03125 L 75.28125 71.191406 L 75.84375 68.878906 L 76.3125 67.617188 L 77.25 65.726562 L 78.09375 64.464844 L 79.125 63.203125 L 80.0625 62.257812 L 81.75 60.996094 L 83.0625 60.257812 L 85.21875 59.417969 L 86.625 59.101562 Z M 87.65625 59 "/>
<path style=" stroke:none;fill-rule:nonzero;fill:rgb(0.784314%,47.058824%,70.588237%);fill-opacity:1;" d="M 99.09375 75.5 L 101.25 75.5 L 102.375 75.710938 L 102.375 76.554688 L 101.90625 78.761719 L 101.15625 80.863281 L 100.40625 82.441406 L 99.28125 84.121094 L 98.25 85.382812 L 97.3125 86.328125 L 95.625 87.589844 L 94.03125 88.535156 L 93.46875 88.640625 L 92.90625 85.910156 L 92.25 83.910156 L 91.40625 81.914062 L 90.65625 80.546875 L 90.46875 80.023438 L 91.21875 79.179688 L 92.53125 78.023438 L 94.125 76.972656 L 95.4375 76.34375 L 97.5 75.710938 Z M 99.09375 75.5 "/>
<path style=" stroke:none;fill-rule:nonzero;fill:rgb(0.784314%,47.058824%,70.588237%);fill-opacity:1;" d="M 75.1875 76.027344 L 77.71875 76.027344 L 79.40625 76.34375 L 80.8125 76.761719 L 82.6875 77.710938 L 84.1875 78.761719 L 85.03125 79.496094 L 85.59375 80.023438 L 85.5 80.757812 L 84.46875 82.964844 L 83.8125 84.859375 L 83.25 87.589844 L 83.0625 88.222656 L 82.59375 88.011719 L 81.5625 87.378906 L 80.25 86.328125 L 79.3125 85.382812 L 78.28125 84.226562 L 77.15625 82.542969 L 76.21875 80.652344 L 75.65625 78.972656 L 75.1875 76.761719 Z M 75.1875 76.027344 "/>
<path style=" stroke:none;fill-rule:nonzero;fill:rgb(0.784314%,47.058824%,70.588237%);fill-opacity:1;" d="M 115.3125 100.941406 L 115.6875 101.152344 L 116.4375 101.992188 L 117.09375 102.832031 L 118.875 104.828125 L 119.53125 105.671875 L 120.46875 106.828125 L 120.5625 107.140625 L 120.09375 107.351562 L 113.53125 108.824219 L 113.15625 108.71875 L 113.53125 106.933594 L 114.65625 102.9375 L 115.21875 101.046875 Z M 115.3125 100.941406 "/>
<path style=" stroke:none;fill-rule:nonzero;fill:rgb(0.784314%,47.058824%,70.588237%);fill-opacity:1;" d="M 88.03125 83.699219 L 88.3125 83.699219 L 89.53125 86.644531 L 89.90625 88.011719 L 90 88.640625 L 89.8125 89.378906 L 89.53125 89.691406 L 87.1875 89.585938 L 86.625 89.484375 L 86.625 88.328125 L 87.09375 86.117188 L 87.65625 84.4375 Z M 88.03125 83.699219 "/>
<path style=" stroke:none;fill-rule:nonzero;fill:rgb(1.176471%,47.058824%,70.588237%);fill-opacity:1;" d="M 86.71875 93.476562 L 89.90625 93.582031 L 90 93.898438 L 89.53125 96.105469 L 88.78125 97.996094 L 88.5 98.523438 L 88.21875 98.417969 L 87.46875 96.734375 L 86.8125 94.527344 Z M 86.71875 93.476562 "/>
</g>
</svg>
