<?xml version="1.0" encoding="UTF-8"?>
<svg version="1.1" viewBox="0 0 2048 1929" width="639" height="602" xmlns="http://www.w3.org/2000/svg">
<path transform="translate(911,353)" d="m0 0h213l1 1v61l-7 8-15 14-9 9h-2l-5-17-6-9-9-8-10-6-3-12-5-9-8-9-10-6-12-3h-11l-13 4-11 8-7 10-4 11-2 7-15 8-3 3h-2l-2 4-5 8-3 10v16l3 10 6 10 10 9 10 4 4 1h18l11-4 9-7 5 1 9 6 10 3h14l10-3 4-2h3l-1 12 13-1 23-5 8-4 8-7h2v25l-3 8-4 6-8 7-10 3h-162l-12-3-8-7-6-9-2-8v-147z" fill="#0C7BB6"/>
<path transform="translate(965,313)" d="m0 0h131l11 2 9 6 6 7 3 8v9l-1 1h-213l-1-1v-8l6-12 7-7 9-4zm-27 16-2 2v7l2 2h8l2-2v-6l-3-3zm21 0-1 1v8l2 2h8l1-2v-7l-2-2zm22 0-2 4 1 6 1 1h8l1-1v-9l-1-1z" fill="#147FB8"/>
<path transform="translate(955,672)" d="m0 0h11l9 3 8 8 8-7 10-4h12l10 3 7 7 4 8 1 5v42l-1 1h-11l-1-1-1-42-3-5v-2l-10-3-10 1-6 4-3 5-1 4-1 38-1 1h-11l-1-1-1-42-4-7-7-3h-8l-8 3-5 6-1 3-1 40-1 1h-11l-1-1v-64h11l2 6 12-6z" fill="#147FB8"/>
<path transform="translate(1109,672)" d="m0 0h13l11 4 5 4 2-7h10l1 1v57l-2 13-5 9-6 5-10 4-14 1-13-2-12-5-3-2 1-5 3-5 5 1 8 4 9 2h9l9-3 5-5 2-5v-10l-9 6-13 2-14-2-9-6-6-7-3-6-1-6v-11l3-10 8-9 12-6zm1 12-8 4-5 6-2 6v9l4 8 7 6 4 1h14l6-3 5-5 3-6v-12l-3-6-7-6-5-2z" fill="#1E84BB"/>
<path transform="translate(1160,395)" d="m0 0 7 3 11 11 1 5-7 8-10 10-8 7-12 12-8 7-14 14h-2l-1 3-6 5-4-1-10-10-6-7v-4l8-7 10-10 8-7 17-16 17-17z" fill="#0E7BB7"/>
<path transform="translate(1578,647)" d="m0 0h10l2 1v88l-2 2h-8l-3-3v-4l-7 5-6 2-12 1-12-3-8-5-6-8-4-9v-17l4-9 6-8 7-5 10-3h12l11 4 5 3v-31zm-28 37-8 4-5 6-3 8v8l3 8 7 7 4 2 9 1 8-2 6-4 4-5 2-5v-13l-4-8-6-5-6-2z" fill="#1B83BB"/>
<path transform="translate(975,415)" d="m0 0h2l4 13 5 8 5 5 5 4 9 6 5 15 3 5-2 4-9 6-7 2h-14l-9-3-8-6-6-7-4-8-1-4v-14l4-10 6-8 8-6z" fill="#117DB7"/>
<path transform="translate(1062,416)" d="m0 0 5 1 8 7 7 12 2 8v7l-3 9-4 8-5 6-10 6-7 2h-13l-10-3-7-5 1-8 3-8 3-7 13-8 6-5 7-11 3-10z" fill="#127EB8"/>
<path transform="translate(1350,672)" d="m0 0h13l10 3 10 9 5 10 2 7v8l-1 1-17 1h-29l-7-1 6 12 4 2 9 3h7l10-3 7-3 5 4 1 4-8 6-13 4h-9l-12-3-8-5-6-7-4-8-1-4v-13l4-11 6-8 9-6zm2 11-8 4-5 6-3 7 1 1h39l2-2-5-9-6-5-5-2z" fill="#1E84BB"/>
<path transform="translate(1193,672)" d="m0 0h13l9 3 8 6 6 10 2 6 1 8-1 5-3 1h-41l-8-1 3 7 5 6 6 3 4 1h9l9-3 5-3 4 2 3 3-1 4-6 5-9 3-6 1h-8l-12-3-9-6-7-10-3-9v-12l4-11 9-10 10-5zm0 11-9 6-5 8 1 4h40l-2-6-4-6-5-4-4-2z" fill="#1B82BA"/>
<path transform="translate(1471,672)" d="m0 0h13l10 3 6 4 5 7 2 8v41l-1 2-8 1-4-4-5 2-10 3h-9l-10-3-6-4-4-6-1-10 4-8 6-5 5-2 9-1 20-1-1-8-5-5-7-2-10 1-11 4h-4l-3-6 1-4 10-5zm-1 38-6 3-2 2v8l7 6 3 1h8l10-5 4-6v-8l-2-1z" fill="#1982BA"/>
<path transform="translate(1633,672)" d="m0 0h12l10 3 8 6 6 7 4 10v16l-4 9-7 8-7 5-11 3h-11l-12-4-10-9-5-10-1-4v-14l4-10 9-10 7-4zm1 12-7 3-5 4-4 8v14l4 7 7 6 10 2 10-2 7-6 3-6 1-4v-10l-3-7-4-5-9-4z" fill="#1D84BB"/>
<path transform="translate(1278,672)" d="m0 0h9l10 3 6 5 5 9 1 4v44l-1 1h-10l-2-3-1-40-3-6-4-3-3-1h-11l-7 3-4 5-2 5-1 9-1 31h-11l-2-4v-28l1-32 1-1h10l2 6 10-5z" fill="#1680B9"/>
<path transform="translate(727,673)" d="m0 0h9l3 1 1 36 2 10 5 5 2 1h14l8-5 3-5 1-10 1-33h12l1 1v40l-1 24h-10l-2-6-12 6-4 1h-10l-10-3-6-4-4-5-3-7-1-8v-36z" fill="#1A82BA"/>
<path transform="translate(441,673)" d="m0 0h11l1 1 1 43 4 7 4 2 8 1 9-2 6-5 3-9 1-37 1-1h10l2 2v59l-1 3-9 1-2-1v-6l-7 5-12 3-11-1-10-4-7-8-2-4-1-6v-42z" fill="#1A82BA"/>
<path transform="translate(843,673)" d="m0 0h11l2 1v36l2 9 5 6 3 1h13l6-3 5-6 1-4 1-37 1-3h11l1 1v63l-1 1h-9l-1-1v-6l-14 7-5 1h-9l-10-3-8-7-4-8-1-4z" fill="#1F85BC"/>
<path transform="translate(1017,375)" d="m0 0 11 1 10 4 10 9 6 12v2l-20 4-12 7-3 2-5-1-14-7-16-3 3-9 6-10 9-7 8-3z" fill="#0D7BB6"/>
<path transform="translate(393,672)" d="m0 0h14l10 4 8 7 1 5-6 4-5-1-10-6h-12l-8 4-5 7-1 3v14l5 8 5 4 6 2h7l8-3 7-5 5 1 4 3-1 5-8 7-8 3-4 1h-11l-13-4-10-9-4-8-2-7v-10l2-9 5-8 9-8 8-3z" fill="#1E84BB"/>
<path transform="translate(679,672)" d="m0 0h15l10 4 7 6 1 6-5 4-5-1-8-5-3-1h-11l-8 4-3 1-2 5-2 6v10l4 9 9 6 9 1 8-2 8-6 6 2 3 2-1 6-8 6-7 3-5 1h-10l-13-4-8-6-6-9-2-5-1-12 2-9 4-8 8-8 10-5z" fill="#1E84BC"/>
<path transform="translate(810,647)" d="m0 0h10l2 1v89l-2 1h-9l-1-1-1-9v-68z" fill="#2B8BBF"/>
<path transform="translate(1435,672)" d="m0 0 4 1 1 3v7l-3 2-10 3-5 3-4 7-1 38-2 2h-10l-1-1v-63l1-1h11l1 1v6l10-6z" fill="#137EB8"/>
<path transform="translate(573,673)" d="m0 0h12v7l10-6 4-1h10v11l-1 1-10 2-6 3-5 7-1 40-1 1h-11l-1-1z" fill="#1982BA"/>
<path transform="translate(552,672)" d="m0 0h5l2 4v8l-12 3-6 4-4 6-1 39-3 2h-9l-1-1v-63l1-1h11l2 6 11-6z" fill="#1B82BA"/>
<path transform="translate(1689,673)" d="m0 0h10l1 1v7l8-6 6-2h10v11l-13 3-6 5-3 8-1 37-1 1h-10l-1-1-1-34z" fill="#107DB7"/>
<path transform="translate(625,672)" d="m0 0h7l4 2v29l-1 35-1 1-9-1-1-1-1-63z" fill="#1D84BB"/>
<path transform="translate(1045,411)" d="m0 0h8l1 1v7l-5 10-9 10-4 3h-5l-4-9-3-7v-5l5-4 8-4z" fill="#1B83BB"/>
<path transform="translate(984,412)" d="m0 0 11 1 14 7 3 2-2 5-5 14-4-1-8-6-6-10-3-8z" fill="#1E84BC"/>
<path transform="translate(628,646)" d="m0 0 6 1 4 4v6l-5 5-5 1-6-5-1-6 4-5z" fill="#1780B9"/>
<path transform="translate(1086,470)" d="m0 0 4 2 8 8 1 4-11 3h-7l4-16z" fill="#2A8BBF"/>
<path transform="translate(1016,431)" d="m0 0h3l3 5 1 9-1 1h-6l-3-3 1-7z" fill="#70B1D4"/>
<path transform="translate(1019,452)" d="m0 0 4 1-2 9-1 2-4-1-2-5 1-5z" fill="#FEFEFE"/>
<path transform="translate(1019,454)" d="m0 0h2l-1 9-3-1-2-7z" fill="#0778B5"/>
</svg>
